<svg xmlns="http://www.w3.org/2000/svg" aria-hidden="true" style="position:absolute;width:0;height:0;overflow:hidden">
  <defs>
    <symbol id="icon-down" viewBox="0 0 18 32">
      <path stroke-linecap="round" stroke-linejoin="round" stroke-width="3.556" d="m8.889 30.222-7.111-7.34m7.111 7.34L16 22.882m-7.111 7.34V1.778"/>
    </symbol>
    <symbol id="icon-facebook" viewBox="0 0 32 32">
      <path d="m16 32-.14-.001c-.047-.001-.095.001-.142.001a16.55 16.55 0 0 1-2.505-.189v-.053C5.705 30.439 0 23.886 0 16 0 7.163 7.163 0 16 0s16 7.163 16 16-7.163 16-16 16zm-.14-.001c.803-.007 1.591-.07 2.363-.189V20.892h3.735l.711-4.516h-4.446v-2.929c0-1.236.62-2.441 2.611-2.441h2.023V7.161s-1.835-.305-3.588-.305c-3.663 0-6.056 2.163-6.056 6.078v3.442h-4.07v4.516h4.07v10.865c.861.151 1.745.234 2.647.241z"/>
    </symbol>
    <symbol id="icon-instagram" viewBox="0 0 32 32">
      <path d="M.92 4.608A8.437 8.437 0 0 1 4.608.92C6.413 0 8.777 0 13.503 0h4.993c4.727 0 7.09 0 8.895.92a8.437 8.437 0 0 1 3.688 3.688c.92 1.805.92 4.169.92 8.895v4.993c0 4.727 0 7.09-.92 8.895a8.437 8.437 0 0 1-3.688 3.688c-1.805.92-4.169.92-8.895.92h-4.993c-4.727 0-7.09 0-8.895-.92A8.437 8.437 0 0 1 .92 27.391C0 25.586 0 23.222 0 18.496v-4.993c0-4.727 0-7.09.92-8.895zM16 21.714a5.714 5.714 0 1 0 0-11.427 5.714 5.714 0 0 0 0 11.427zM19.428 16a3.429 3.429 0 1 0-6.857-.001 3.429 3.429 0 0 0 6.857.001zM5.319 8.316c-.747 1.467-.747 3.387-.747 7.227v.914c0 3.84 0 5.761.747 7.227a6.857 6.857 0 0 0 2.997 2.997c1.467.747 3.387.747 7.227.747h.914c3.84 0 5.761 0 7.227-.747a6.857 6.857 0 0 0 2.997-2.997c.747-1.467.747-3.387.747-7.227v-.914c0-3.84 0-5.761-.747-7.227a6.857 6.857 0 0 0-2.997-2.997c-1.467-.747-3.387-.747-7.227-.747h-.914c-3.84 0-5.761 0-7.227.747a6.857 6.857 0 0 0-2.997 2.997zm10.224-1.459h.914c1.958 0 3.289.002 4.318.086 1.002.082 1.514.23 1.872.412a4.576 4.576 0 0 1 1.998 1.998c.182.357.33.87.412 1.872.084 1.029.086 2.36.086 4.318v.914c0 1.958-.002 3.289-.086 4.318-.082 1.002-.23 1.514-.412 1.872a4.576 4.576 0 0 1-1.998 1.998c-.358.182-.87.33-1.872.412-1.029.084-2.36.086-4.318.086h-.914c-1.958 0-3.289-.002-4.318-.086-1.002-.082-1.515-.23-1.872-.412a4.571 4.571 0 0 1-1.998-1.998c-.182-.358-.331-.87-.412-1.872-.084-1.029-.086-2.36-.086-4.318v-.914c0-1.958.002-3.289.086-4.318.082-1.002.23-1.515.412-1.872a4.571 4.571 0 0 1 1.998-1.998c.357-.182.87-.331 1.872-.412 1.029-.084 2.36-.086 4.318-.086zM24 9.714a1.714 1.714 0 1 0-3.428 0 1.714 1.714 0 0 0 3.428 0z"/>
    </symbol>
    <symbol id="icon-logotype" viewBox="0 0 247 32">
      <path d="M63.345 17.997v8.482h13.917v4.937h-19.08V-.001h18.855v4.937H63.345v8.168h12.57v4.892h-12.57zM98.598 20.107h-16.61v-4.668h16.61v4.668zM129.429 0h5.522v31.417h-5.163V9.021l-9.562 15.798h-.629l-9.562-15.843v22.44h-5.163V-.001h5.567l9.472 15.708 9.517-15.708zM162.586 22.261h-17.868c.359 1.676 1.167 2.977 2.424 3.905 1.287.928 2.874 1.391 4.759 1.391 2.544 0 4.474-.928 5.791-2.783l3.996 2.334c-2.185 3.261-5.462 4.892-9.831 4.892-3.622 0-6.569-1.107-8.844-3.321-2.245-2.244-3.367-5.072-3.367-8.482 0-3.321 1.107-6.119 3.322-8.393 2.185-2.274 5.028-3.411 8.529-3.411 3.263 0 5.956 1.152 8.081 3.456s3.187 5.101 3.187 8.393c0 .599-.06 1.272-.179 2.02zm-17.913-3.95h13.199c-.33-1.765-1.078-3.127-2.244-4.084-1.137-.957-2.529-1.436-4.176-1.436-1.795 0-3.292.494-4.489 1.481s-1.961 2.334-2.29 4.039zM178.838 8.393c2.604 0 4.684.838 6.24 2.513 1.587 1.646 2.38 3.89 2.38 6.732v13.778h-4.848V18.131c0-1.675-.449-2.962-1.347-3.86s-2.125-1.346-3.681-1.346c-1.766 0-3.158.554-4.175 1.661-1.018 1.077-1.527 2.678-1.527 4.802v12.028h-4.848V8.976h4.848v2.872c1.497-2.304 3.817-3.456 6.959-3.456zM205.203 8.976v4.668h-5.567v10.771c0 .928.209 1.601.628 2.02.419.389 1.033.613 1.841.673.838.03 1.871.015 3.097-.045v4.353c-3.711.449-6.374.135-7.99-.943-1.617-1.107-2.425-3.127-2.425-6.059V13.643h-4.131V8.975h4.131V4.128l4.848-1.436v6.283h5.567zM227.67 28.589c-2.275 2.274-5.073 3.411-8.396 3.411-3.321 0-6.119-1.137-8.394-3.411-2.304-2.304-3.457-5.102-3.457-8.393s1.153-6.089 3.457-8.393c2.275-2.274 5.073-3.411 8.394-3.411 3.322 0 6.121 1.137 8.396 3.411 2.304 2.304 3.457 5.101 3.457 8.393s-1.153 6.089-3.457 8.393zm-15.398-8.393c0 2.035.673 3.725 2.02 5.072s3.007 2.02 4.982 2.02c1.977 0 3.636-.673 4.983-2.02s2.02-3.037 2.02-5.072-.673-3.725-2.02-5.072c-1.347-1.346-3.007-2.02-4.983-2.02-1.975 0-3.635.673-4.982 2.02s-2.02 3.037-2.02 5.072zM240.359 8.976v3.77c1.228-2.783 3.532-4.174 6.913-4.174v5.251c-1.825-.12-3.441.329-4.848 1.346-1.377.987-2.065 2.633-2.065 4.937v11.31h-4.848V8.976h4.848z"/>
      <path fill="#fa9f42" d="M0 13.474C0 6.033 6.078 0 13.576 0h27.152v1.684c0 7.441-6.078 13.474-13.576 13.474H0v-1.684zM0 26.947c0-4.651 3.799-8.421 8.485-8.421h1.697c3.749 0 6.788 3.016 6.788 6.737S13.931 32 10.182 32H0v-5.053zM23.758 26.947c0-4.651 3.799-8.421 8.485-8.421h1.697c3.749 0 6.788 3.016 6.788 6.737S37.689 32 33.94 32H23.758v-5.053z" style="fill:var(--color1, #fa9f42)"/>
    </symbol>
    <symbol id="icon-skill-1" viewBox="0 0 36 32">
      <path fill="none" stroke="#fa9f42" stroke-miterlimit="10" stroke-width="1.778" d="M33.778 15.056c0 8.375-7.161 15.166-15.991 15.166S1.796 23.431 1.796 15.056m-.018 0c0-7.33 6.272-13.279 14.001-13.279S29.78 7.725 29.78 15.056c0 6.285-5.366 11.374-11.993 11.374S5.794 21.341 5.794 15.056c0-5.241 4.478-9.47 9.986-9.47 5.526 0 9.986 4.246 9.986 9.47m.016 0c0 4.196-3.571 7.583-7.996 7.583S9.79 19.252 9.79 15.056c0-3.134 2.683-5.696 6.006-5.696 3.305 0 6.005 2.544 6.005 5.696m-.017 0c0 2.09-1.794 3.791-3.998 3.791s-3.998-1.702-3.998-3.791c0-1.045.888-1.887 1.99-1.887s1.99.842 1.99 1.887" style="stroke:var(--color1, #fa9f42)"/>
    </symbol>
    <symbol id="icon-skill-2" viewBox="0 0 32 32">
      <path fill="none" stroke="#fa9f42" stroke-width="2" d="M1.051 31c.5-4.869 4.614-8.667 9.616-8.667s9.115 3.798 9.616 8.667H1.052zM31 22.384V31h-8.616A9.671 9.671 0 0 1 31 22.384zm0-2.102c-4.869-.5-8.667-4.614-8.667-9.616S26.131 1.551 31 1.05v19.231zm-10.667-9.615c0 5.339-4.328 9.667-9.667 9.667S.999 16.006.999 10.667C.999 5.328 5.327 1 10.666 1s9.667 4.328 9.667 9.667z" style="stroke:var(--color1, #fa9f42)"/>
    </symbol>
    <symbol id="icon-skill-3" viewBox="0 0 32 32">
      <path fill="none" stroke="#fa9f42" stroke-miterlimit="10" stroke-width="1.778" d="M10.311 16H16m-5.689 0a8.527 8.527 0 0 0-8.533 8.533M10.311 16v-5.689m0 5.689c-4.709 0-8.533-3.824-8.533-8.533V1.778h5.689M16 16v5.689M16 16v-5.689M16 16h5.689M16 21.689h-5.689m5.689 0c0 4.709-3.824 8.533-8.533 8.533H1.778v-5.689M16 21.689c0 4.709 3.824 8.533 8.533 8.533m-14.222-8.533a2.853 2.853 0 0 0-2.844 2.844m2.844-2.844a2.853 2.853 0 0 1-2.844 2.844m0 0H1.778M16 10.311a8.527 8.527 0 0 0-8.533-8.533M16 10.311h5.689m-5.689 0a8.527 8.527 0 0 1 8.533-8.533h5.689v5.689m-19.911 2.844a2.853 2.853 0 0 0-2.844-2.844m2.844 2.844a2.853 2.853 0 0 1-2.844-2.844m0 0V1.778M21.689 16c4.709 0 8.533-3.824 8.533-8.533M21.689 16v5.689m0-5.689a8.527 8.527 0 0 1 8.533 8.533v5.689h-5.689m-2.844-19.911a2.853 2.853 0 0 0 2.844-2.844m-2.844 2.844a2.853 2.853 0 0 1 2.844-2.844m0 0h5.689m-8.533 14.222a2.853 2.853 0 0 0 2.844 2.844m-2.844-2.844a2.853 2.853 0 0 1 2.844 2.844m0 0v5.689" style="stroke:var(--color1, #fa9f42)"/>
    </symbol>
    <symbol id="icon-skill-4" viewBox="0 0 32 32">
      <path fill="#fa9f42" d="M32 32V.008h-2.454V32H32zM7.378 27.994V4H4.924v23.994h2.454zM2.454 31.992V0H0v31.992h2.454zM12.303 23.997V8.001H9.849v15.996h2.454zM17.227 19.999v-7.998h-2.454v7.998h2.454zM22.151 23.999V8.003h-2.454v15.996h2.454zM27.076 28V4.006h-2.454V28h2.454z" style="fill:var(--color1, #fa9f42)"/>
    </symbol>
    <symbol id="icon-vk" viewBox="0 0 32 32">
      <path d="M13.503 0c-4.727 0-7.09 0-8.895.92A8.437 8.437 0 0 0 .92 4.608C0 6.413 0 8.777 0 13.503v4.993c0 4.727 0 7.09.92 8.895a8.437 8.437 0 0 0 3.688 3.688c1.805.92 4.169.92 8.895.92h4.993c4.727 0 7.09 0 8.895-.92a8.437 8.437 0 0 0 3.688-3.688c.92-1.805.92-4.169.92-8.895v-4.993c0-4.727 0-7.09-.92-8.895A8.437 8.437 0 0 0 27.391.92C25.586 0 23.222 0 18.496 0h-4.993zm10.243 17.653c-.135.343-.079.681.167 1.015.314.352.661.711 1.012 1.073 1.039 1.072 2.111 2.178 2.443 3.261.117.676-.44.927-1.005.927l-3.045.05c-.191.042-.413.021-.666-.063-.878-.289-1.451-.981-2.029-1.679-.371-.448-.744-.898-1.201-1.246-.227-.173-.502-.291-.767-.151-.598.314-.613.919-.629 1.532-.012.463-.023.93-.287 1.28-.348.386-1.023.337-1.574.297-.154-.011-.299-.022-.424-.022-5.697.204-9.412-7.962-11.109-12.176-.203-.569.117-.852.69-.852l3.259-.025c.348.061.679.267.809.626.488 1.194 2.264 5.499 3.366 5.499s.826-4.387.452-5.211c-.198-.284-.535-.463-1.011-.539-.103-.017-.083-.117.06-.301.499-.643 3.56-.833 4.9-.514.265.07.524.194.642.47.268.628.207 1.686.144 2.757-.077 1.327-.156 2.675.391 3.25.211.055.326.062.512-.088 1.407-1.419 2.367-3.627 3.152-5.436.101-.266.262-.397.511-.457.433 0 .902.002 1.386.004 1.014.004 2.091.009 3.039-.004 1.466 0-.655 3.007-2.085 5.033-.557.79-1.009 1.43-1.103 1.687z"/>
    </symbol>
  </defs>
</svg>
